<svg xmlns="http://www.w3.org/2000/svg" viewBox="0 0 512 512" role="img" aria-labelledby="title desc">
  <title id="title">coacher logo</title>
  <desc id="desc">A stylized mark combining mindset, nutrition, and strength.</desc>
  <defs>
    <linearGradient id="headGrad" x1="0%" y1="0%" x2="100%" y2="100%">
      <stop offset="0%" stop-color="#1d3142"/>
      <stop offset="100%" stop-color="#314f64"/>
    </linearGradient>
    <linearGradient id="leafGrad" x1="0%" y1="0%" x2="100%" y2="100%">
      <stop offset="0%" stop-color="#b5c39b"/>
      <stop offset="100%" stop-color="#83946d"/>
    </linearGradient>
    <linearGradient id="bellGrad" x1="0%" y1="0%" x2="100%" y2="100%">
      <stop offset="0%" stop-color="#57b7e9"/>
      <stop offset="100%" stop-color="#1d78b2"/>
    </linearGradient>
    <filter id="softShadow" x="-20%" y="-20%" width="140%" height="140%">
      <feDropShadow dx="0" dy="3" stdDeviation="4" flood-color="#0f172a" flood-opacity=".22"/>
    </filter>
  </defs>

  <g filter="url(#softShadow)">
    <path
      d="M264 28c-80 0-148 38-184 95 44-18 102-14 142 13 46 31 63 78 56 121-8 49-43 82-65 118-16 25-18 63-2 96 7-18 20-35 37-49 31-25 66-34 89-62 25-31 26-73 13-111-15-46-53-89-44-133 4-17 14-33 30-46-22-27-45-42-72-42z"
      fill="url(#headGrad)"/>
    <path
      d="M95 124c-52 73-62 167-26 249 25 58 67 102 118 128-18-30-24-69-11-104 18-50 58-82 108-95 52-14 104-4 144 14-16-41-46-76-86-94-43-20-93-19-129-39-42-24-67-68-65-123 1-20 6-40 16-58-29 27-51 57-69 122z"
      fill="url(#leafGrad)"/>
    <path
      d="M430 109c23 25 41 54 54 87 28 73 21 155-16 221-34 59-88 100-149 117 23-27 37-62 35-101-3-52-31-95-65-133-35-38-79-68-95-115-6-18-8-38-4-58 23 41 62 66 106 78 51 14 105 16 147 47 24 17 40 38 48 63 4-74-14-144-61-206z"
      fill="url(#bellGrad)"/>
  </g>

  <g fill="none" stroke="#fff" stroke-linecap="round" stroke-linejoin="round">
    <path
      d="M266 86c-17-18-49-22-69-8-17 12-23 34-16 51-17 1-31 14-34 31-4 19 5 36 21 46-6 13-4 29 7 39"
      stroke-width="11"/>
    <path
      d="M252 83c13-14 37-18 55-10 14 7 23 22 23 37 16 2 29 15 31 31 2 18-7 33-22 41 4 14-1 30-13 38"
      stroke-width="11"/>
    <path
      d="M191 197c17-19 42-30 69-28 20 1 39 9 53 23"
      stroke-width="10"/>
    <path d="M248 230c-13 11-22 27-25 44" stroke-width="10"/>
    <path d="M226 93c8 2 14 9 16 18" stroke-width="9"/>
    <path d="M283 96c8 1 15 7 18 15" stroke-width="9"/>
  </g>

  <g fill="none" stroke="#213120" stroke-linecap="round" stroke-linejoin="round" stroke-width="8">
    <path d="M92 299c64 10 108 44 131 99"/>
    <path d="M165 261c-1 62-24 110-69 145"/>
    <path d="M140 330c24-4 46-1 66 10"/>
    <path d="M186 356c12-21 31-38 53-48"/>
  </g>

  <g transform="translate(309 332) rotate(35)">
    <g fill="#fff" stroke="#2b5d87" stroke-width="3">
      <rect x="-67" y="-11" width="134" height="22" rx="11"/>
      <rect x="-92" y="-19" width="18" height="38" rx="9"/>
      <rect x="-112" y="-27" width="15" height="54" rx="7.5"/>
      <rect x="74" y="-19" width="18" height="38" rx="9"/>
      <rect x="97" y="-27" width="15" height="54" rx="7.5"/>
    </g>
  </g>
</svg>
