<svg xmlns="http://www.w3.org/2000/svg" viewBox="0 0 1024 1024" role="img" aria-labelledby="title desc">
  <title id="title">coacher logo</title>
  <desc id="desc">A stylized emblem combining mindset, nutrition, and strength on a dark glowing background.</desc>
  <defs>
    <radialGradient id="bgGlow" cx="50%" cy="45%" r="70%">
      <stop offset="0%" stop-color="#20313b"/>
      <stop offset="55%" stop-color="#2b3435"/>
      <stop offset="100%" stop-color="#6e6e6e"/>
    </radialGradient>
    <radialGradient id="blueHalo" cx="68%" cy="48%" r="28%">
      <stop offset="0%" stop-color="#68d1ff" stop-opacity=".9"/>
      <stop offset="55%" stop-color="#55b6e8" stop-opacity=".38"/>
      <stop offset="100%" stop-color="#55b6e8" stop-opacity="0"/>
    </radialGradient>
    <radialGradient id="greenHalo" cx="33%" cy="55%" r="26%">
      <stop offset="0%" stop-color="#d8ecab" stop-opacity=".72"/>
      <stop offset="55%" stop-color="#bfd691" stop-opacity=".28"/>
      <stop offset="100%" stop-color="#bfd691" stop-opacity="0"/>
    </radialGradient>
    <linearGradient id="headGrad" x1="22%" y1="18%" x2="74%" y2="80%">
      <stop offset="0%" stop-color="#243f57"/>
      <stop offset="100%" stop-color="#183145"/>
    </linearGradient>
    <linearGradient id="leafGrad" x1="18%" y1="22%" x2="72%" y2="78%">
      <stop offset="0%" stop-color="#b7c39a"/>
      <stop offset="100%" stop-color="#97aa7d"/>
    </linearGradient>
    <linearGradient id="bellGrad" x1="28%" y1="18%" x2="76%" y2="82%">
      <stop offset="0%" stop-color="#66c8f5"/>
      <stop offset="100%" stop-color="#2f95c9"/>
    </linearGradient>
    <filter id="blurSoft" x="-25%" y="-25%" width="150%" height="150%">
      <feGaussianBlur stdDeviation="38"/>
    </filter>
    <filter id="shadow" x="-20%" y="-20%" width="140%" height="140%">
      <feDropShadow dx="0" dy="6" stdDeviation="10" flood-color="#09131c" flood-opacity=".3"/>
    </filter>
  </defs>

  <rect width="1024" height="1024" fill="url(#bgGlow)"/>
  <circle cx="695" cy="505" r="235" fill="url(#blueHalo)" filter="url(#blurSoft)"/>
  <circle cx="318" cy="580" r="225" fill="url(#greenHalo)" filter="url(#blurSoft)"/>

  <g filter="url(#shadow)" transform="translate(0 18)">
    <path
      d="M281 372c64-98 158-147 281-129 83 12 165 73 180 155 14 76-12 143-80 186-30 18-66 24-83 64-12 26-16 52-28 76-9-31-10-64 3-95 13-32 42-57 66-84 54-61 63-147 26-217-26-48-77-88-139-100-93-18-161 9-226 68z"
      fill="url(#headGrad)" stroke="#112534" stroke-width="2.2"/>
    <path
      d="M337 374c92 46 177 115 205 188 19 49 13 97-16 157-17 35-24 63-15 91-93-6-183-51-230-128-49-78-38-183 17-244 10-11 23-20 39-28z"
      fill="url(#leafGrad)" stroke="#7f8f63" stroke-width="2"/>
    <path
      d="M685 280c76 51 121 127 127 220 7 109-34 216-110 285-54 49-121 71-194 61 21-31 30-66 24-107-8-56 8-94 54-136 31-27 70-41 102-64 79-57 109-157 73-259-15-42-39-79-76-112z"
      fill="url(#bellGrad)" stroke="#1d7aac" stroke-width="2"/>
  </g>

  <g fill="none" stroke="#ffffff" stroke-linecap="round" stroke-linejoin="round" filter="url(#shadow)">
    <path
      d="M531 260c-24-18-61-25-89-14-26 11-44 34-42 58-18 5-35 21-40 41-7 27 2 49 25 63-10 16-8 35 4 49"
      stroke-width="12"/>
    <path
      d="M520 250c18-16 47-22 71-16 26 7 45 27 49 50 21 2 39 17 47 38 8 22 2 47-17 61 5 19-3 39-20 50"
      stroke-width="12"/>
    <path
      d="M427 335c32-27 92-30 132-5"
      stroke-width="10"/>
    <path
      d="M473 367c22-10 47-11 70-4"
      stroke-width="10"/>
    <path d="M517 381c-10 17-22 31-33 50" stroke-width="10"/>
    <path d="M444 270c10 4 16 13 18 23" stroke-width="9"/>
    <path d="M552 268c11 2 19 10 22 21" stroke-width="9"/>
  </g>

  <g fill="none" stroke="#7b875e" stroke-linecap="round" stroke-linejoin="round" filter="url(#shadow)">
    <path d="M349 476c58 20 95 73 94 136" stroke-width="4"/>
    <path d="M414 565c-44-10-94 11-127 51" stroke-width="4"/>
    <path d="M358 507c-2 61 18 123 61 177" stroke-width="4"/>
    <path d="M410 614c28-38 59-57 111-63" stroke-width="4"/>
    <path d="M298 566c31-1 72 20 94 53" stroke-width="4"/>
    <path d="M297 560c9-38 25-67 52-98" stroke-width="4"/>
    <path d="M420 618c0-31 12-61 37-92" stroke-width="4"/>
  </g>

  <g transform="translate(686 621) rotate(37)" filter="url(#shadow)">
    <g fill="#fff" stroke="#246e9c" stroke-width="3">
      <rect x="-73" y="-14" width="146" height="28" rx="14"/>
      <rect x="-103" y="-23" width="22" height="46" rx="11"/>
      <rect x="-127" y="-31" width="17" height="62" rx="8.5"/>
      <rect x="81" y="-23" width="22" height="46" rx="11"/>
      <rect x="110" y="-31" width="17" height="62" rx="8.5"/>
    </g>
  </g>
</svg>
